<svg xmlns="http://www.w3.org/2000/svg" viewBox="480 470 1100 1100">
  <path d="M508 528L509 1514H586L588 1512L587 610L589 607H670L1022 1009L1027 1007L1388 607H1467L1469 609L1470 738L1469 1513H1551V528H1350L1026 901L841 687L707 528H508Z" fill="currentColor"/>
  <path d="M627 646L626 1513H699L700 785L1008 1131L1025 1147L1359 781L1360 1513L1434 1514L1435 646L1394 647L1240 821L1024 1059L1009 1045L789 795L661 646H627Z" fill="currentColor"/>
  <path d="M732 872V1513L802 1514L805 1512V1052L808 1053L888 1145L1024 1293L1250 1047V1513L1322 1514L1324 1512L1323 872L1304 890L1026 1196L1021 1195L732 872Z" fill="currentColor"/>
</svg>
