<?xml version="1.0" encoding="UTF-8"?>
<svg id="_图层_1" data-name="图层_1" xmlns="http://www.w3.org/2000/svg" version="1.1" xmlns:xlink="http://www.w3.org/1999/xlink" viewBox="0 0 1254 1254">
  <!-- Generator: Adobe Illustrator 30.2.1, SVG Export Plug-In . SVG Version: 2.1.1 Build 1)  -->
  <defs>
    <linearGradient id="_未命名的渐变_7" data-name="未命名的渐变 7" x1="250.118" y1="312.471" x2="720.536" y2="661.013" gradientUnits="userSpaceOnUse">
      <stop offset="0" stop-color="#17c8d7"/>
      <stop offset=".34" stop-color="#2d8cff"/>
      <stop offset=".68" stop-color="#a14bff"/>
      <stop offset="1" stop-color="#ff7a59"/>
    </linearGradient>
  </defs>
  <path d="M623,120c176.382-2.416,318.417,157.94,292.999,335.002-4.246,46.325-30.447,94.439-59.002,131.997-57.451,78.687-24.238,177.356-18.988,264.002-8.557,68.339-88.938,41.634-75.005-21.004,18.268-54.887,36.881-242.255-54.729-190.63-11.559,6.514-20.974,16.291-27.166,28.026-34.794,65.945-26.952,153.939-25.112,228.607.604,66.582,31.679,134.571,10.006,196.001-38.816,76.308-106.426.923-90.995-62.003,15.889-104.948,28.304-226.68-5.009-328.998-26.558-122.253-128.091-98.639-96.999,23.004,52.178,118.984-62.015,152.313-55.009,48.998,56.496-149.989-81.296-199.906-83.994-341.003-9.856-168.25,123.407-309.531,289.002-311.999Z" style="fill: url(#_未命名的渐变_7);"/>
</svg>